<svg xmlns="http://www.w3.org/2000/svg" xmlns:xlink="http://www.w3.org/1999/xlink" width="85" height="36" viewBox="0 0 85 36">
  <defs>
    <linearGradient id="linear-gradient" y1="0.5" x2="1.32" y2="0.5" gradientUnits="objectBoundingBox">
      <stop offset="0" stop-color="#8155ba"/>
      <stop offset="1" stop-color="#2970cc"/>
    </linearGradient>
  </defs>
  <g id="Text" transform="translate(-297.98 -90.001)">
    <g id="Social_Network_Linkedin" data-name="Social Network/Linkedin" transform="translate(346.98 90.001)">
      <rect id="Area" width="36" height="36" fill="none"/>
      <path id="Linkedin" d="M32.4,0A3.6,3.6,0,0,1,36,3.6V32.4A3.6,3.6,0,0,1,32.4,36H3.6A3.6,3.6,0,0,1,0,32.4V3.6A3.6,3.6,0,0,1,3.6,0ZM12.487,13.255H7.651V28.8h4.836ZM24.8,12.868a5.083,5.083,0,0,0-4.575,2.511h-.066V13.255H15.519V28.8h4.832V21.109c0-2.028.387-3.991,2.9-3.991,2.48,0,2.513,2.319,2.513,4.122V28.8H30.6V20.274C30.6,16.088,29.7,12.868,24.8,12.868ZM10.019,5.4a2.816,2.816,0,1,0,2.818,2.815A2.818,2.818,0,0,0,10.019,5.4Z" transform="translate(0)" fill-rule="evenodd" fill="url(#linear-gradient)"/>
    </g>
    <g id="Social_Network_Facebook" data-name="Social Network/Facebook" transform="translate(297.98 90.001)">
      <rect id="Area-2" data-name="Area" width="36" height="36" transform="translate(0 0)" fill="none"/>
      <path id="Facebook" d="M18,36h0L3.6,36A3.6,3.6,0,0,1,0,32.4V3.6A3.6,3.6,0,0,1,3.6,0H32.4A3.6,3.6,0,0,1,36,3.6V32.4A3.6,3.6,0,0,1,32.4,36h-9V22.446h4.614l.74-5.082H23.4V15.192c0-2.094.676-2.909,2.411-2.909H28.8V7.421l-.057-.007A26.35,26.35,0,0,0,25.065,7.2a7.058,7.058,0,0,0-5.176,1.781C18.635,10.227,18,12.13,18,14.634v2.73H12.6v5.082H18V36Z" fill="url(#linear-gradient)"/>
    </g>
  </g>
</svg>
